<svg width="100" height="40" fill="none" xmlns="http://www.w3.org/2000/svg"><path fill-rule="evenodd" clip-rule="evenodd" d="M24.288 17.51c.028.195.05.39.066.587.01.184.017.369.017.554v.026c-.002.805-.123 1.545-.331 2.143a1.945 1.945 0 0 1-.167.238v-.005a9.312 9.312 0 0 0 .115-1.473c0-.928-.137-1.852-.409-2.74l.001.001a9.41 9.41 0 0 0-.742-1.771h.003l-.003-.006c-1.728-3.178-5.22-5.347-9.25-5.347-5.745 0-10.4 4.411-10.4 9.852 0 5.44 4.656 9.853 10.4 9.853h.002c.12 0 .242 0 .364-.006A10.256 10.256 0 0 0 15 29.333c1.113-.249 1.948-.996 2.037-1.898l.005.006a1.634 1.634 0 0 1 .145.228 1.857 1.857 0 0 1 .211 1.07c.352-.09.688-.229 1-.413.14-.086.274-.179.405-.277l.013-.01.044-.033c.083-.064.174-.134.275-.224a6.68 6.68 0 0 0 .408-.428 3.13 3.13 0 0 0 .074-.096l.006-.01.001-.002a2.69 2.69 0 0 0 .262-.47c.063-.162.136-.454.094-.84a.533.533 0 0 0-.009-.024.47.47 0 0 0-.465-.432h-1.921a.695.695 0 0 1 .07-.178c.282-.52 1.258-.906 2.421-.906.809 0 1.527.188 1.987.476a1.359 1.359 0 0 1 .254.199l.006.006a.898.898 0 0 0 .117.027c.027.006.049.006.071.006a11.3 11.3 0 0 1 1.218 0l-.006.033-.002.011a6.286 6.286 0 0 1-.152.659c-.493 1.694-1.595 2.74-1.971 3.094a7.743 7.743 0 0 1-.83.67c-1.81 1.29-3.747 1.782-4.361 1.926-.543.127-3.737.813-7.047-.354C5.153 29.666.864 25.265.985 19.708c.116-5.198 4.03-8.391 4.87-9.04 4.384-3.381 9.355-2.578 10.163-2.435 1.001.228 3.592.941 5.68 3.271.48.537 1.876 2.132 2.401 4.6.098.462.161.93.189 1.4v.006Zm.647 3.283c-.05-.026-.008-.159.088-.46.073-.23.177-.56.294-1.013 0 0 .315-1.218.78-2.247l.003-.006c.04-.087.135-.29.352-.398l.001-.001c.048-.024.261-.13.43-.032.173.093.193.33.204.465l.001.022a1.16 1.16 0 0 1-.138.63c-.714 1.368-.853 1.567-.853 1.567-.819 1.262-1.084 1.517-1.162 1.473Zm5.17-3.145.01.006c.147.088.323.192.367.382.11.481-.77 1.101-1.418 1.372-.09.036-.18.07-.271.1l-.006.002a3.303 3.303 0 0 1-.715.166c-.115.015-.184.023-.187.054-.004.023.035.041.096.068a.792.792 0 0 1 .342.252l.006.01c.037.054.115.17.099.3-.011.105-.094.26-.637.488-.302.131-.617.23-.94.293-.76.143-1.695.255-1.706.182-.003-.016.04-.031.142-.067.103-.037.267-.095.506-.198a4.675 4.675 0 0 0 .927-.518l.02-.014c.194-.138.31-.232.343-.26.088-.072.21-.182.31-.332a.4.4 0 0 0 .072-.155.311.311 0 0 0 .002-.12.196.196 0 0 1 .003-.09c.032-.081.122-.115.168-.132l.004-.001a5.75 5.75 0 0 0 1.001-.52c.21-.139.366-.25.427-.454.06-.205.022-.493-.116-.548a.336.336 0 0 0-.043-.012c-.04-.009-.083-.019-.107-.055-.027-.044-.006-.099 0-.115.067-.183.764-.394 1.301-.084Zm-.791 4.207c-.1-.26-.477-.327-.748-.37-.255-.045-.448-.028-.747 0a6.22 6.22 0 0 0-.88.149l-.053.012c-.678.165-1.104.267-1.104.397 0 .128.636.233 1.915.437.858.14 1.234.177 1.467-.06.138-.15.221-.383.15-.565Zm-.626.255c-.067.144-.377.133-.985.083l-.04-.004c-.837-.075-1.26-.113-1.26-.179 0-.045.232-.082.7-.156l.13-.021.034-.005c.077-.01.268-.039.508-.056.166-.011.293-.017.443-.006.348.028.414.117.432.144.038.05.071.133.038.2ZM10.19 15.74a.946.946 0 0 1-.013-.078l.141.248a5.243 5.243 0 0 1-.002-.104l-.139-.144-.16-2.115a1.42 1.42 0 0 1 1.323-1.511l1.08-.072a1.4 1.4 0 0 1 .356.02 2.791 2.791 0 0 1 2.192.893 5.216 5.216 0 0 1 5.306 3.708l.127.842.002.013.004-.002.028.18.005.014.05.32.465 3.006.01.087.05.312.023.16v.063c.06.434.431.756.869.757a.88.88 0 0 0 .761-.447l.008-.018.061-.144.1-.233a.18.18 0 0 1 .042-.061.189.189 0 0 1 .207-.044l.06.028v.006l.286.119.406.168a.03.03 0 0 0 .006.005l.003.002.004.001.003.002v.001l.006.007a.18.18 0 0 1 .062.215l-.125.297-.003.013v.006c-.044.16-.105.31-.188.453l-.005.007v.001l-.002.003a.018.018 0 0 1-.005.006l-.008.014-.003.005-.002.003-.014.023c0 .002-.002.003-.003.005l-.001.001a.007.007 0 0 0-.001.005c-.377.592-1.069 1.007-1.771 1.007h-.47a1.914 1.914 0 0 1-1.83-1.37l-.009-.031a.555.555 0 0 1-.014-.052l-.004-.019h-.001l.014.066a.611.611 0 0 1-.014-.053l-.003-.014h-.005a.78.78 0 0 1-.023-.11l-.11-.488-.006-.022a.57.57 0 0 1-.022-.094l-.022-.105v.061a.078.078 0 0 1-.003-.04v-.009a.099.099 0 0 1-.003-.018v-.033l-.005-.022-.006-.027v-.017l-.002-.012-.003.005-.006.007-.002.001v.002l-.004.001c-.003.002-.005.003-.005.007l-.009-.044-.002-.016-.005-.029a1.376 1.376 0 0 0-.624-.876 1.38 1.38 0 0 0-.694-.186c-.044 0-.089 0-.133.005-.022 0-.044 0-.066.006-.066.011-.13.026-.194.044l-.05.017a1.418 1.418 0 0 0-.18.075l-.035.019-.023.014-.022.013-.05.034c-.005 0-.01.005-.016.01a.122.122 0 0 0-.045.029.286.286 0 0 0-.024.019l-.025.019a.298.298 0 0 0-.05.039c-.017.01-.033.027-.045.039l-.038.038-.014.017a.145.145 0 0 1-.014.017c0 .005-.004.01-.008.014l-.003.003a.119.119 0 0 0-.022.027.176.176 0 0 0-.017.02.309.309 0 0 0-.087.117.096.096 0 0 1-.018.029.224.224 0 0 1-.027.05c-.005.006-.008.013-.012.019l-.002.005a.145.145 0 0 1-.014.025.019.019 0 0 1-.003.009l-.003.008a.201.201 0 0 1-.01.025c-.005.009-.01.017-.012.025a.21.21 0 0 1-.01.03.21.21 0 0 0-.012.031v.005l-.008.028-.009.028v.005l-.008.031a.963.963 0 0 0-.025.09v.007a.286.286 0 0 0-.005.03l-.006.03a.268.268 0 0 0-.011.067l-.003.033a.266.266 0 0 0-.003.033l-.001.006-.001.005-.001.006c-.002.011-.002.022-.002.033v2.38h-.016v.858a.852.852 0 0 1-.848.847H13.51a.85.85 0 0 1-.847-.846V23.75a1.379 1.379 0 0 0-2.746.175v.04h-.016v.863a.843.843 0 0 1-.847.847H6.896a.85.85 0 0 1-.846-.848v-5.252a1 1 0 0 1 .006-.11 3.691 3.691 0 0 1 3.204-3.538c0 .039.006.083.011.122.051.289.124.565.198.842.044.168.088.337.129.508.08.346.186.64.303.962l.003.01.08.224c.149.423.305.728.454 1.019l.056.11c.11.23.235.45.377.66l.012.02.02.029.006.005c.04.061.083.116.128.172l.03.038.075.079c.177.171.515.459 1.035.619.189.058.377.065.566.048l2.022-.988-2.067-2.138c-.133.412-.338.704-.595.81l.716 1.27a.566.566 0 0 1-.309.074.789.789 0 0 1-.345-.108l-.01.003a1.398 1.398 0 0 1-.454-.403c-.395-.458-.764-1.193-1.012-2.07l-.003-.008-.015-.054-.016-.044-.011-.012-.015-.063a5.578 5.578 0 0 1-.224-.878 8.108 8.108 0 0 1-.21-1.018l-.004-.027Zm7.162 1.453a.856.856 0 0 1-.122-.452.88.88 0 0 1 1.699-.327.865.865 0 0 1 .066.338v.035a.883.883 0 0 0-1.381-.162.89.89 0 0 0-.262.568Zm25.607 6.701.461 1.613-.092.112a2.331 2.331 0 0 1-.343.26c-.161.105-.352.21-.575.316a3.795 3.795 0 0 1-.886.266c-.37.071-.766.107-1.19.107-.895 0-1.66-.148-2.296-.444a3.435 3.435 0 0 1-1.492-1.296 5.97 5.97 0 0 1-.774-1.93c-.157-.717-.236-1.549-.236-2.494 0-1.007.08-1.877.236-2.608a5.609 5.609 0 0 1 .785-1.929c.365-.554.87-.971 1.512-1.25s1.425-.418 2.347-.418c.424 0 .822.037 1.195.112.372.075.666.16.881.255.216.095.41.204.585.327.174.122.283.207.328.255.044.047.077.085.097.112l-.154 2.347H41.79l-.533-1.214a1.197 1.197 0 0 0-.307-.051c-.458 0-.81.104-1.056.311-.246.208-.434.612-.564 1.215-.13.602-.195 1.467-.195 2.597 0 .674.043 1.262.128 1.765.085.504.19.89.313 1.159s.27.485.44.648c.171.163.325.267.462.311.137.044.284.067.44.067.35 0 .715-.043 1.098-.128.383-.085.697-.216.943-.393Zm4.675-3.49v5.95h-3.322V14.81l-.615-.367v-.95l3.29-.51h.667v6.011l.123-.153c.082-.109.204-.238.364-.388.16-.15.34-.297.538-.444a2.99 2.99 0 0 1 .713-.377c.277-.106.548-.158.815-.158.936 0 1.598.255 1.984.765.386.51.579 1.364.579 2.562v.183a2.38 2.38 0 0 0-.01.194v5.175h-3.383v-5.47c.02-.64-.253-.96-.82-.96-.055 0-.108.003-.16.01a.507.507 0 0 0-.158.051 3.332 3.332 0 0 1-.129.061.899.899 0 0 0-.133.082 2.98 2.98 0 0 0-.343.276Zm11.174 5.95-.328-.909-.102.113a2.081 2.081 0 0 1-.313.285c-.14.11-.3.218-.482.327a2.92 2.92 0 0 1-.661.28c-.26.079-.526.118-.8.118-1.845 0-2.768-.908-2.768-2.725 0-.354.065-.679.195-.975.13-.296.297-.546.503-.75.205-.204.45-.386.738-.546a4.68 4.68 0 0 1 .866-.377c.29-.092.596-.169.918-.23a8.145 8.145 0 0 1 1.588-.153v-.184c0-.415-.11-.707-.333-.878-.222-.17-.579-.255-1.071-.255-.424 0-.865.05-1.322.148-.458.099-.817.216-1.077.352l-.656-1.388c.465-.299 1.07-.563 1.815-.79a7.739 7.739 0 0 1 2.276-.342c.683 0 1.247.066 1.691.199.444.132.805.357 1.082.673.276.317.473.718.59 1.204.115.487.173 1.104.173 1.853v4.154l.287.796H58.81ZM56.8 23.496c0 .85.29 1.276.871 1.276a.577.577 0 0 0 .252-.056.746.746 0 0 0 .179-.113l.062-.056v-2.45c-.417 0-.749.115-.995.343-.246.228-.369.58-.369 1.056Zm9.498 2.919c-.379.102-.8.153-1.266.153-.922 0-1.566-.276-1.932-.827-.366-.55-.549-1.483-.549-2.796v-3.47h-.707v-1.419l1.21-.377 1.045-2.378h1.805v2.378h1.681v1.796h-1.712v3.796c0 .545.079.905.236 1.082.157.177.4.266.728.266.143 0 .273-.017.39-.051a.81.81 0 0 0 .286-.143v1.388a2.097 2.097 0 0 1-.4.3c-.164.1-.435.2-.815.302Zm9.51-.061-.124-1.082c-.868.864-1.9 1.296-3.096 1.296-.847 0-1.58-.146-2.2-.439a3.524 3.524 0 0 1-1.47-1.266 5.86 5.86 0 0 1-.795-1.887c-.167-.708-.25-1.514-.25-2.42 0-.673.035-1.278.107-1.816.072-.537.19-1.051.353-1.54.165-.49.39-.914.677-1.272a4.305 4.305 0 0 1 1.056-.933c.417-.266.923-.465 1.517-.597a9.364 9.364 0 0 1 2.03-.2 7.527 7.527 0 0 1 1.774.21 4.945 4.945 0 0 1 1.082.439 2.626 2.626 0 0 1 .491.362c.024.027.043.048.057.061l-.154 2.348h-1.866l-.584-1.358c-.15-.082-.393-.122-.728-.122-.273 0-.499.023-.677.071a1.332 1.332 0 0 0-.528.301c-.174.153-.31.374-.41.663-.099.29-.18.68-.24 1.174a14.882 14.882 0 0 0-.093 1.801c0 1.477.08 2.572.241 3.287.16.714.484 1.071.969 1.071.239 0 .44-.022.605-.066.164-.044.317-.126.461-.245.143-.119.25-.296.318-.53.068-.235.102-.536.102-.904v-1.04l-1.353-.307v-2.082h4.562l-.01 7.022h-1.825Zm9.308 0h-6.449V14.393h3.394v9.225h3.055v2.736Zm3.875-7.032-.318 7.032h-3.086l.954-11.961h4.808l.902 4.01.41 2.031.39-2.02.8-4.022h4.285l.881 11.962H95.83l-.523-7.032-.123-2.592-1.568 8.43H90.94l-1.886-8.43-.062 2.592Z" fill="#fff"/></svg>