<svg width="100" height="40" fill="none" xmlns="http://www.w3.org/2000/svg"><path fill-rule="evenodd" clip-rule="evenodd" d="m34.014 19.059-.637-.644a263.164 263.164 0 0 0-1.909-1.917 189.53 189.53 0 0 0-2.112-2.113c-.4-.396-.801-.793-1.203-1.195l-3.635-3.666a1.323 1.323 0 0 0-1.899 0c-.387.378-.768.761-1.15 1.145h-.001c-.287.288-.574.577-.865.864L15.11 16.98a1.324 1.324 0 0 0-.428 1.338 1.253 1.253 0 0 0 1.113.997c.52.03 1.013.02 1.499.01.24-.005.48-.01.719-.01h2.335a1.346 1.346 0 0 0 1.23-1.207v-1.767a1.355 1.355 0 0 1 .365-.98c.25-.257.498-.514.778-.779a1.19 1.19 0 0 1 .825-.334 1.619 1.619 0 0 1 1.222.622l4.732 4.732a1.323 1.323 0 0 1 0 2.047 1545.274 1545.274 0 0 1-5.852 5.853 1.815 1.815 0 0 0 2.335 2.779c.483-.426.943-.878 1.377-1.355a376.64 376.64 0 0 1 3.051-3.05 544.388 544.388 0 0 1 4.242-4.234 1.369 1.369 0 0 0 0-2.04 1.802 1.802 0 0 1-.41-.332 3.582 3.582 0 0 0-.228-.212Zm-13.83 1.393h-3.97a1.385 1.385 0 0 0-.778.21 1.423 1.423 0 0 0-.693 1.043c-.037.41-.024.823-.012 1.237.006.208.012.415.012.623a1.238 1.238 0 0 1-.397.95c-.21.176-.402.372-.576.583a1.362 1.362 0 0 1-2.031.047c-.356-.368-.726-.73-1.095-1.092l-.275-.27-.928-.928c-.926-.928-1.85-1.855-2.785-2.777a1.4 1.4 0 0 1-.14-1.634c.211-.276.443-.537.693-.778.359-.396.738-.773 1.136-1.129a16.57 16.57 0 0 0 1.277-1.284c.175-.18.348-.362.521-.545.173-.183.346-.366.521-.545l2.149-2.132a1.51 1.51 0 0 0 .389-.927 1.712 1.712 0 0 0-.553-1.478 1.611 1.611 0 0 0-1.377-.46 2.17 2.17 0 0 0-1.238.678c-.249.24-.482.49-.724.778a1.62 1.62 0 0 0-.218.179c-2.47 2.418-4.932 4.844-7.386 7.277-.88.864-.88 1.385 0 2.265l7.44 7.347c.079.078.162.15.25.218l2.428 2.42a1.283 1.283 0 0 0 1.891 0l5.238-5.245c.236-.236.474-.47.712-.704a49.269 49.269 0 0 0 1.748-1.78 1.035 1.035 0 0 0 .257-.886 1.34 1.34 0 0 0-1.487-1.261Zm53.803-5.09h-1.992c-.21 0-.273.039-.312.241v5.028c0 .202.07.264.28.264h1.456c.21.008.28-.07.28-.28v-1.478c.008-.226-.054-.28-.303-.28h-.779c-.257 0-.436-.04-.436-.39V17.41c0-.133.07-.18.203-.18h3.456c.155 0 .225.055.225.219v4.918c0 .203-.148.203-.288.203h-5.962c-.358 0-.358 0-.358-.374v-8.008c0-.2 0-.301.051-.353.052-.052.157-.052.37-.052h5.004c.26-.018.52-.018.778 0a.365.365 0 0 1 .374.373v1.059c0 .148-.14.148-.249.148h-1.798Zm-13.083 2.537v-4.397c0-.218-.062-.312-.304-.304h-1.642c-.249 0-.335.086-.335.342v2.514c0 .257-.062.35-.334.343h-2.864c-.498 0-.654.148-.654.638v5.207c0 .272.085.342.35.335h5.448c.273 0 .32-.094.32-.335.015-1.432.015-2.902.015-4.342Zm-2.53 3.004H57.37c-.17 0-.24-.054-.24-.226V18.25c0-.163.077-.218.225-.218h1.02c.17 0 .233.063.225.234v2.404c.031.188-.039.242-.226.234Zm24.945.615c.012.21.012.42 0 .63-.039.32-.132.429-.49.42h-5.426c-.373 0-.45-.07-.45-.45v-5.153c0-.413.17-.576.583-.576h5.184c.397 0 .56.148.56.537v2.88c0 .319-.101.405-.42.405h-3.254c-.319 0-.319.007-.319.389-.015.241.055.319.304.319h3.113c.46.008.615.14.615.6Zm-2.366-3.19c0-.188-.062-.273-.257-.273-.335.015-.677.015-1.012 0-.202 0-.319.03-.319.288 0 .256.125.256.312.256h1.011c.195.008.265-.085.265-.272Zm-15.714 4.256h2.755c.327 0 .436-.116.452-.451v-.53c0-.59-.094-.684-.67-.684H64.78c-.022 0-.044.002-.068.004-.088.008-.182.016-.212-.082a.779.779 0 0 1 0-.545c.048-.103.158-.093.26-.083a.908.908 0 0 0 .082.005h3.113c.413 0 .475-.062.475-.482v-2.748c0-.467-.132-.599-.6-.599h-5.066c-.475 0-.654.171-.646.654.005.322.003.599.002.875l-.002.417v3.782c0 .382.078.452.444.46h2.654l.023.007Zm-.537-4.592h1.237c.133 0 .187.063.195.195 0 .42 0 .451-.397.451H64.71c-.218 0-.257-.1-.241-.272a.964.964 0 0 0 .001-.105c-.002-.14-.004-.269.232-.269Zm25.583 4.592h-2.748l-.015-.007h-2.615c-.39 0-.467-.07-.467-.467v-5.106c0-.483.14-.623.607-.623h5.113c.428.008.6.164.6.592v2.778c-.008.382-.094.46-.475.46h-3.176a.736.736 0 0 1-.082-.001c-.1-.005-.208-.01-.245.117a.825.825 0 0 0 0 .514c.047.078.187.078.288.078h3.02c.522 0 .662.132.662.661v.553c-.024.327-.148.451-.467.451Zm-2.102-4.521h-1.136c-.117 0-.226.03-.21.17a.864.864 0 0 1 .004.09c.003.128.006.269.175.269h1.183c.187-.008.187-.14.187-.288 0-.148-.04-.241-.203-.241ZM45.82 20.895h-3.307c-.265 0-.35-.07-.343-.342v-4.787c0-.228 0-.34.057-.396.055-.055.164-.055.379-.055h3.238c.218 0 .288-.07.272-.272a4.89 4.89 0 0 1-.003-.454v-.002l.003-.237c0-.545-.101-.638-.661-.638h-5.27c-.272 0-.334.093-.334.35v8.172c0 .25.054.335.319.335h5.215c.114.008.228.008.342 0a.382.382 0 0 0 .381-.42v-.95c0-.304-.051-.304-.27-.304h-.018Zm7.674-1.408V22c0 .467-.108.583-.568.552h-4.98c-.491 0-.631-.14-.631-.622v-4.95c0-.444.179-.623.622-.623h5.005c.405 0 .552.148.552.56v2.569Zm-3.58 1.47h1.012c.187.008.265-.07.257-.264V18.29c.008-.172-.047-.258-.234-.258h-1.081c-.156 0-.203.063-.203.203v2.482c0 .187.07.242.25.242Zm48.994 1.448c-.35-.638-.708-1.276-1.066-1.907-.451-.778-.903-1.556-1.362-2.334a.327.327 0 0 1 0-.374l.096-.164c.124-.214.249-.429.379-.614l.248-.415a61.53 61.53 0 0 0 1.51-2.62c.118-.219.07-.304-.178-.304h-1.83a.701.701 0 0 0-.622.319c-.22.342-.42.69-.622 1.044-.098.17-.195.341-.296.513-.094.155-.172.21-.288 0a19.098 19.098 0 0 0-.779-1.3.856.856 0 0 0-.505-.467 8.934 8.934 0 0 0-2.188-.094c-.124 0-.178.086-.124.195l.068.144v.001c.056.123.128.279.197.4.22.365.434.735.648 1.104.347.597.694 1.194 1.064 1.776a1.105 1.105 0 0 1 0 1.424c-.347.483-.64 1.003-.932 1.524h-.001a44.25 44.25 0 0 1-.328.577 40.995 40.995 0 0 0-.848 1.557c-.133.249-.07.35.194.35h1.642a.926.926 0 0 0 .88-.475c.184-.33.379-.657.573-.982l.001-.001v-.001h.001v-.001c.134-.224.268-.448.398-.672.148-.257.163-.265.311 0 .263.432.511.874.76 1.318l.003.005.179.319a.958.958 0 0 0 .6.436c.363.07.734.096 1.104.077h.895c.25-.093.312-.179.218-.358Zm-7.277 2.405c.078-.218.25-.218.436-.218.172.007.165.114.158.217a.61.61 0 0 0-.002.08v1.641c0 .14-.024.265-.187.257-.163-.008-.163-.132-.163-.249v-1.315a1.353 1.353 0 0 0-.32.63l-.257.716-.007.02-.006.019c-.03.084-.053.15-.189.164-.155.015-.233-.094-.233-.203a16.47 16.47 0 0 1-.28-.848.661.661 0 0 0-.242-.381v1.245c0 .101-.023.202-.148.194-.124-.007-.194-.054-.194-.194v-1.19l-.002-.17a4.316 4.316 0 0 1 .002-.306l.001-.068c0-.115 0-.246.154-.259a.703.703 0 0 0 .113-.02c.139-.031.258-.058.339.238.08.296.19.607.297.913l.002.004.003.01.002.004.077.221a.45.45 0 0 1 .013.047c.015.063.031.132.112.132.1 0 .1-.101.1-.163l.087-.225c.12-.313.24-.622.334-.943Zm-17.768.927c0-.102 0-.18-.148-.18h-.662c-.101 0-.14.063-.132.156l.001.022c.006.081.01.134.139.134h.233c.18 0 .234.078.187.249a.575.575 0 0 1-.895.303 1.098 1.098 0 0 1-.109-1.408.654.654 0 0 1 .942 0 .7.7 0 0 0 .117.14.21.21 0 0 0 .272 0c.062-.047.042-.094.02-.14-.01-.024-.02-.047-.02-.07a.693.693 0 0 0-.498-.39 1.026 1.026 0 0 0-1.37 1.075.99.99 0 0 0 1.471 1.02.187.187 0 0 1 .171 0c.296.14.312.124.312-.203v-.288l-.031-.42Zm-18.073-.608c.174.055.357.071.538.047.123-.029.145.072.16.142l.003.014v1.494a.638.638 0 0 1-.483.592.779.779 0 0 1-.825-.195l-.03-.04c-.056-.07-.122-.154-.024-.232a.21.21 0 0 1 .288.054.436.436 0 0 0 .591.101.265.265 0 0 0 .14-.241c.008-.148-.007-.194-.163-.148a.654.654 0 0 1-.833-.257 1.027 1.027 0 0 1 0-1.035.623.623 0 0 1 .638-.296Zm.222 1.285a.343.343 0 0 0 .12-.21c.014-.088.019-.177.017-.265v-.234a.32.32 0 0 0-.327-.288.374.374 0 0 0-.428.242.887.887 0 0 0 0 .568.373.373 0 0 0 .389.264.343.343 0 0 0 .23-.077Zm40.188-.787v-.972c0-.11 0-.195-.148-.195s-.18.078-.171.202c.005.084.003.125.001.166l-.001.068c0 .218-.047.303-.288.241a.693.693 0 0 0-.856.615 1.559 1.559 0 0 0 0 .498.654.654 0 0 0 .903.522.319.319 0 0 1 .303 0c.195.093.249 0 .249-.195v-.95h.008Zm-.802.896h-.054c-.195-.063-.28-.296-.25-.662 0-.218.094-.397.343-.428.25-.031.483.148.49.53.008.38-.194.606-.529.56ZM68.54 24.63v.981h.008v.957c0 .195-.07.273-.257.195a.318.318 0 0 0-.28 0 .654.654 0 0 1-.895-.405c-.203-.63.117-1.393.895-1.206.124.03.194-.016.194-.14v-.374a.157.157 0 0 1 .036-.134.157.157 0 0 1 .128-.053c.171-.008.171.063.171.18Zm-.928 1.856a.374.374 0 0 0 .282.043c.233-.03.32-.179.343-.576a.79.79 0 0 0 0-.132c-.016-.218-.078-.412-.35-.412a.396.396 0 0 0-.444.35.833.833 0 0 0 0 .498.374.374 0 0 0 .17.23Zm-3.33-1.38a.53.53 0 0 0 .094.093.226.226 0 0 0 .25 0c.051-.042.034-.084.016-.125-.008-.02-.017-.042-.017-.062a.623.623 0 0 0-.475-.413c-.778-.179-1.323.241-1.33 1.136a1.777 1.777 0 0 0 0 .273.95.95 0 0 0 .856.778.864.864 0 0 0 .918-.467c0-.017.013-.035.026-.054.028-.04.059-.085-.026-.133a.234.234 0 0 0-.226 0 .405.405 0 0 0-.132.125.576.576 0 0 1-1.02-.109 1.066 1.066 0 0 1-.046-.872.6.6 0 0 1 1.113-.17Zm-23.19-.44a.21.21 0 0 1 .036.081l.152.415c.168.457.333.906.47 1.336l.004.01c.032.087.085.232-.05.232a.21.21 0 0 1-.28-.133c-.018-.048-.03-.104-.042-.16-.027-.134-.055-.268-.176-.307-.114-.036-.245-.024-.377-.012a2.202 2.202 0 0 1-.199.012.265.265 0 0 0-.319.242 1.022 1.022 0 0 1-.101.295.193.193 0 0 1-.197.11.195.195 0 0 1-.076-.024c-.046-.026-.03-.076-.015-.127a.277.277 0 0 0 .015-.076l.183-.51c.151-.418.302-.835.44-1.256.062-.203.14-.203.296-.203a.21.21 0 0 1 .236.076Zm-.477.898c-.07.304-.055.304.233.304.288 0 .335-.047.241-.327a3.944 3.944 0 0 0-.148-.39.124.124 0 0 0-.108-.093h-.038c-.015-.002-.024-.002-.029.002-.005.004-.007.013-.01.031a.81.81 0 0 1-.019.076 1.253 1.253 0 0 1-.053.14.692.692 0 0 0-.071.257Zm6.903.42v-.63c0-.124-.054-.187-.163-.187-.125 0-.172.07-.172.187v.778c0 .265-.155.42-.381.405-.226-.015-.303-.202-.311-.405a10.677 10.677 0 0 1-.002-.514l.002-.264a.14.14 0 0 0-.164-.155c-.1 0-.179.046-.17.155a5.03 5.03 0 0 0 0 1.082.53.53 0 0 0 .777.366.334.334 0 0 1 .32 0c.163.078.264 0 .264-.187v-.63Zm6.024-.784c.07 0 .138-.014.203-.04a.515.515 0 0 1 .747.474c.02.327.02.654 0 .981a.156.156 0 0 1-.18.179c-.14 0-.14-.086-.14-.179l.002-.266v-.001c.002-.157.004-.302-.001-.511-.008-.32-.094-.444-.335-.444-.241 0-.382.156-.382.444v.63l.002.027c.008.131.016.261-.18.261-.172 0-.167-.083-.16-.207.002-.028.004-.057.004-.089v-1.135c0-.163.085-.218.218-.163.064.026.133.04.202.04Zm32.455-.157a.779.779 0 0 0-.778.872.778.778 0 0 0 .778.856.778.778 0 0 0 .779-.872.778.778 0 0 0-.779-.856Zm.304 1.144c-.07.179-.148.327-.366.319-.218-.008-.288-.179-.35-.342a1.552 1.552 0 0 1 0-.257 2.11 2.11 0 0 1 0-.242c.062-.186.148-.35.366-.365.218-.016.288.155.358.327a.778.778 0 0 1-.008.56Zm-20.722-1.001a.78.78 0 0 1 .63 0 .777.777 0 0 1 .463.783.778.778 0 1 1-1.556 0 .778.778 0 0 1 .463-.783Zm.313 1.351a.521.521 0 0 1-.457-.576c0-.327.179-.552.435-.552.257 0 .42.179.42.568 0 .382-.127.554-.398.56Zm27.616-1.416a.78.78 0 0 0-.778.84.779.779 0 0 0 1.093.799.779.779 0 0 0 .463-.783c0-.498-.303-.872-.778-.856Zm0 1.416c-.265 0-.428-.226-.428-.584s.156-.544.428-.544.428.194.428.552c0 .358-.14.576-.413.576h-.015ZM45.43 24.585c.057.07.084.159.078.249l-.039 1.712c0 .093-.008.233-.117.226-.109-.008-.109-.14-.109-.226v-1.19a.419.419 0 0 0-.085-.343 11.11 11.11 0 0 0-.428 1.128 5.216 5.216 0 0 0-.13.355c-.02.063-.038.115-.05.143-.03.078-.093.156-.194.14a.182.182 0 0 1-.163-.179l-.374-1.175a.358.358 0 0 0-.218-.264 2.148 2.148 0 0 0 0 .63v.801c.002.064.004.134-.1.14-.118.009-.118-.07-.118-.147v-1.79a.226.226 0 0 1 .125-.195h.296c.163-.023.163.078.163.156l.183.549c.06.183.12.365.183.548a.248.248 0 0 1 .006.047c.003.046.005.088.087.093.11.008.11-.07.11-.124l.03-.09.035-.096c.1-.286.2-.568.316-.85a.68.68 0 0 0 .024-.073c.031-.106.066-.225.24-.175h.25Zm51.936.552a.647.647 0 0 0-.622.63 1.513 1.513 0 0 0 0 .53.654.654 0 0 0 .544.514.778.778 0 0 0 .724-.273l.005-.007c.037-.051.07-.097-.005-.156-.078-.063-.117-.07-.187-.04a.825.825 0 0 0-.163.125.405.405 0 0 1-.568-.078.288.288 0 0 1-.062-.272c.04-.082.123-.08.2-.078h.565c.334 0 .396-.085.295-.397a.677.677 0 0 0-.724-.498Zm.086.677c-.043-.025-.1-.02-.157-.014-.096.01-.188.019-.193-.134-.008-.24.17-.264.358-.272.186-.008.358.093.35.28-.005.116-.093.115-.19.114-.058 0-.12 0-.168.026Zm-13.52-.392a.11.11 0 0 1-.046.003c-.182.008-.201.126-.224.261l-.002.012v.505c0 .156 0 .335.203.335a.124.124 0 0 1 .109.133.137.137 0 0 1-.14.132.389.389 0 0 1-.483-.296.45.45 0 0 1 0-.101v-.717c0-.124-.023-.233-.171-.28-.148-.046-.133-.163 0-.217a.28.28 0 0 0 .171-.32.164.164 0 0 1 .171-.186c.164-.008.171.023.164.179-.008.155.015.311.21.311a.125.125 0 0 1 .113.09.124.124 0 0 1 .004.05.108.108 0 0 1-.038.083.107.107 0 0 1-.04.023Zm-23.636.68v-.397a.467.467 0 0 0-.28-.513.879.879 0 0 0-.849.1l-.002.003c-.07.077-.153.17-.06.27.078.084.15.029.212-.02.013-.009.025-.019.037-.026a.412.412 0 0 1 .436-.11.226.226 0 0 1 .179.234c0 .127-.095.133-.188.138l-.03.002a1.798 1.798 0 0 0-.288 0 .552.552 0 0 0-.49.343.468.468 0 0 0 .124.537.607.607 0 0 0 .623.1.42.42 0 0 1 .373 0c.117.063.203 0 .203-.147v-.514Zm-.716.467c-.148 0-.28-.07-.288-.264-.008-.195.14-.296.443-.288.117 0 .242 0 .242.155a.405.405 0 0 1-.397.397Zm23.1-.871v.396l.008.055v.475c0 .179-.086.233-.234.179a.475.475 0 0 0-.358 0 .56.56 0 0 1-.615-.117.475.475 0 0 1-.109-.514.56.56 0 0 1 .506-.358h.29c.08.002.17.003.17-.116a.196.196 0 0 0-.075-.21.195.195 0 0 0-.073-.032.381.381 0 0 0-.435.102c-.078.054-.187.093-.273 0-.084-.093-.002-.184.06-.254l.002-.003a.871.871 0 0 1 .849-.117.49.49 0 0 1 .288.514Zm-.813.858a.28.28 0 0 0 .112.013.365.365 0 0 0 .366-.373c.008-.18-.117-.18-.241-.18-.28 0-.428.11-.428.28a.279.279 0 0 0 .19.26Zm-32.125-1.372c-.218 0-.249-.156-.241-.327.008-.171-.07-.171-.187-.171-.117 0-.14.085-.14.179a.288.288 0 0 1-.195.327c-.155.07-.124.186 0 .233.125.047.164.133.164.257v.763a.358.358 0 0 0 .443.358c.07 0 .14 0 .164-.11a.125.125 0 0 0-.101-.155c-.172 0-.187-.163-.187-.303v-.522c0-.148 0-.288.21-.288a.11.11 0 0 0 .117-.093c.023-.063.023-.14-.047-.148Zm37.553-.132a.49.49 0 0 0 .35 0 .584.584 0 0 1 .864.467c.035.341.035.685 0 1.027 0 .163-.101.202-.257.202-.155 0-.21 0-.21-.233v-.779c0-.17-.07-.31-.249-.31a.28.28 0 0 0-.319.303l-.001.255v.002c-.002.196-.004.405.001.521.008.171-.07.25-.233.241-.164-.008-.242-.078-.242-.241v-1.214c-.007-.241.102-.304.296-.241Zm11.55-.592c-.156 0-.156.093-.156.21v1.9c0 .108 0 .21.164.21.163 0 .171-.078.171-.203v-1.922c0-.133-.047-.195-.179-.195Zm-22.283.638a.654.654 0 0 0 .405 0 .545.545 0 0 1 .763.537v.981c0 .132-.04.241-.203.241l-.06.002c-.117.005-.157.006-.157-.243v-.778a.594.594 0 0 0-.14-.436h-.18a.591.591 0 0 0-.272.56c0 .07 0 .149.002.228.001.157.003.314-.002.403-.008.132-.078.225-.21.225a.195.195 0 0 1-.21-.218v-1.292a.194.194 0 0 1 .164-.222.194.194 0 0 1 .1.012Zm-15.465-.638c-.132 0-.194 0-.194.187v1.915c0 .132 0 .21.171.217.164.008.164-.085.164-.188v-1.936c.007-.11 0-.195-.14-.195Zm17.798.606a.779.779 0 0 1 .446.102.95.95 0 0 1 .397.74c-.024.171-.117.171-.234.171h-.641c-.091-.003-.207-.006-.207.124a.264.264 0 0 0 .21.273.326.326 0 0 0 .366-.093c.101-.117.226-.218.358-.07.132.147.008.287-.117.38a.708.708 0 0 1-.498.172.778.778 0 0 1-.778-.591 1.075 1.075 0 0 1 .272-1.043.779.779 0 0 1 .426-.165Zm-.118.74a.308.308 0 0 1 .136.008.372.372 0 0 1 .166-.02c.105.002.205.004.215-.12.016-.194-.156-.28-.342-.28-.187 0-.42.117-.374.304.03.12.113.114.2.107ZM51.37 24.451c-.143 0-.142.085-.14.171v1.931c0 .1 0 .225.148.225.147 0 .186-.077.186-.218V24.7c0-.186-.062-.249-.194-.249Zm29.221.785a.342.342 0 0 0 .183-.053l.018-.01c.074-.037.158-.08.215.049a.164.164 0 0 1-.132.233.482.482 0 0 0-.366.467 6.093 6.093 0 0 0 0 .654c0 .117-.008.187-.17.195-.164.007-.164-.078-.164-.187V25.34c0-.156.093-.234.233-.156a.342.342 0 0 0 .183.053Zm-5.561.865h.607c.11 0 .21 0 .234-.163a.826.826 0 0 0-.39-.778c-.599-.288-1.151.108-1.144.825a1.142 1.142 0 0 0 0 .163.779.779 0 0 0 .56.693.833.833 0 0 0 .834-.28c.054-.078.1-.156.046-.242-.054-.085-.179-.062-.272 0a.624.624 0 0 0-.132.117.35.35 0 0 1-.374.07.233.233 0 0 1-.18-.257c.008-.148.115-.148.2-.148h.011Zm.436-.256a.041.041 0 0 0 .031-.014v.014h-.031Zm0-.265c0 .062 0 .179-.093.179-.026 0-.064.005-.11.01-.12.015-.289.035-.396-.01-.085-.036-.058-.087-.027-.143.022-.042.047-.086.027-.13l.155-.054a.186.186 0 0 0 .18 0 .287.287 0 0 1 .233.148h.03Zm-17.41-.148c-.001-.151-.001-.311.21-.311.205-.008.224.14.254.365l.002.016.002.36v.001c.002.277.004.575-.002.744-.008.25-.093.335-.342.25a.365.365 0 0 0-.273 0 .576.576 0 0 1-.825-.553v-.927c0-.1.063-.194.148-.21l.022-.004c.083-.016.188-.037.188.113v1.012l.07.078a.295.295 0 0 0 .358.148c.187-.04.187-.171.187-.288v-.794Zm26.586-.265c-.14 0-.156.086-.156.195v1.214c0 .101 0 .202.14.202s.195-.062.195-.194v-1.238a.156.156 0 0 0-.179-.179Zm-15.04-.085a.778.778 0 0 1 .494.023.778.778 0 0 1 .44.916.194.194 0 0 1-.191.111h-.619c-.103-.002-.222-.005-.222.148a.234.234 0 0 0 .241.234h.203l.109-.055c.015-.194.202-.194.272-.194s.156.008.14.1a.536.536 0 0 0-.005.064c-.003.085-.007.178-.143.178l-.054.055a.73.73 0 0 1-1.129-.133 1.043 1.043 0 0 1 .055-1.167.778.778 0 0 1 .408-.28Zm-.043.381c.015.07-.008.07-.063.07-.093.18-.054.28.172.257h.365a1.94 1.94 0 0 1 .01-.021.243.243 0 0 1 .016-.037.446.446 0 0 0 .052-.175c.041.093.06.164.037.194.058-.033.036-.088-.037-.194a.337.337 0 0 0-.218-.164.117.117 0 0 1-.148 0l-.186.07ZM48.327 24.39a.212.212 0 0 0-.216.106.212.212 0 0 0-.026.08.789.789 0 0 0 0 .188v1.82c0 .133 0 .25.187.258.187.008.226-.11.226-.25v-1.984c.008-.117-.04-.21-.171-.218Zm3.837.918c0-.1.03-.186.163-.186.132-.008.226.046.226.186v1.324a.187.187 0 0 1-.21.21h-.018c-.162 0-.162 0-.162-.21v-1.324Zm32.47-.848c-.132 0-.155.07-.148.179l.002.024c.006.096.01.163.154.163.156 0 .179-.078.179-.203 0-.124-.078-.163-.187-.163Zm-32.206.354a.157.157 0 0 1-.07.012c-.148.008-.163-.04-.171-.203-.008-.163.054-.163.179-.163a.14.14 0 0 1 .155.179.157.157 0 0 1-.093.175Zm-1.837-.19c0-.125-.062-.164-.17-.164-.11 0-.18.055-.164.179l.004.042c.01.095.014.138.151.145.156.008.18-.078.18-.203Zm-.272.591c.086-.14.179-.093.272 0 0 .008.016.047.016.047a7.62 7.62 0 0 1 0 1.51c-.101.1-.288 0-.288 0a5.167 5.167 0 0 1 0-1.557Z" fill="#fff"/></svg>