<svg width="100" height="40" fill="none" xmlns="http://www.w3.org/2000/svg"><path fill-rule="evenodd" clip-rule="evenodd" d="m28.982 14.498.396 3.395a.993.993 0 0 1 .99 1.013.995.995 0 0 1-1.2.971l-2.676 6.973a.768.768 0 1 1-1.038 1.066l-4.193 1.72a.7.7 0 0 1 0 .128.657.657 0 0 1-1.02.547l-2.281 2.302-1.023-4.027h-.064a.767.767 0 0 1-.767-.767.767.767 0 0 1 .159-.463l-2.928-3.102a.657.657 0 0 1-1.005-.575l-4.052-.936a.766.766 0 1 1-1.345-.72l-4.543-4.306a.857.857 0 0 1-.535.189.875.875 0 0 1-.874-.874.874.874 0 0 1 1.23-.808l2.6-4.05a.989.989 0 0 1-.358-.767.994.994 0 0 1 1.907-.402l9.75-2.766a.829.829 0 0 1-.014-.11.874.874 0 0 1 1.492-.618.874.874 0 0 1 .255.618.8.8 0 0 1-.041.255l10.227 4.792a.878.878 0 0 1 .729-.391.875.875 0 0 1 .686 1.403.869.869 0 0 1-.464.31Zm-8.88 14.842a.66.66 0 0 1 .412-.238l.268-6.282a.877.877 0 0 1-.278-.095l-3.094 4.529a.766.766 0 0 1 .238.552.815.815 0 0 1-.041.238l2.495 1.296Zm-.069-7.139-6.392 1.478.003.005a.65.65 0 0 1-.123.381l2.935 3.114a.768.768 0 0 1 .752-.058l3.094-4.526a.977.977 0 0 1-.269-.394Zm-.076-.248v-.11a.99.99 0 0 1 .738-.94l-.483-3.616h-.053a1.368 1.368 0 0 1-1.358-1.14l-4.306.332a.87.87 0 0 1-.82.808l-.141 1.424a.991.991 0 0 1-.184 1.956l-.2 2.404a.648.648 0 0 1 .415.358l6.392-1.476ZM7.11 21.841a.767.767 0 0 1 .463-.159v-.012a.766.766 0 0 1 .64.327l4.182-2.02a.973.973 0 0 1-.074-.312.995.995 0 0 1 .961-.992l.136-1.424a.868.868 0 0 1-.637-.657l-10.06.511a.875.875 0 0 1-.151.417l4.54 4.32Zm14.4-6.145 6.44-1.681a.867.867 0 0 0 .768.526l.399 3.4a.992.992 0 0 0-.673.599l-6.96-2.301c.025-.101.038-.205.039-.31a1.255 1.255 0 0 0-.014-.233Zm6.37-2.019a.92.92 0 0 1 .04-.256L17.7 8.645a.83.83 0 0 1-.283.256l2.337 5.714c.13-.041.265-.064.401-.066a1.374 1.374 0 0 1 1.279.908l6.445-1.685v-.095ZM16.504 8.865a.872.872 0 0 1-.322-.373l-9.754 2.761a.877.877 0 0 1 .015.143c-.001.14-.03.277-.087.404l6.615 4.048a.86.86 0 0 1 .664-.315.867.867 0 0 1 .85.678l4.302-.33a1.36 1.36 0 0 1 .736-1.191l-2.339-5.715a.793.793 0 0 1-.207.028.872.872 0 0 1-.473-.138ZM5.45 12.39a.975.975 0 0 1-.421-.097l-2.603 4.07a.86.86 0 0 1 .284.466l10.06-.512a.884.884 0 0 1 .062-.256l-6.615-4.044a.99.99 0 0 1-.767.373Zm2.902 10.05v.044l4.045.939a.655.655 0 0 1 .524-.39l.202-2.397a.99.99 0 0 1-.621-.427l-4.183 2.017c.021.07.033.142.033.215Zm9.148 5.83a.767.767 0 0 1-.302.243l.9 3.587 1.969-1.977a.647.647 0 0 1-.1-.373.726.726 0 0 1 .028-.184L17.5 28.269Zm3.28.843c.16.039.3.137.391.274l4.19-1.723a.752.752 0 0 1 .148-.642l-3.98-4.364a1.023 1.023 0 0 1-.48.173l-.27 6.282Zm5.323-2.38c.052 0 .103.005.154.015l2.687-6.964a.992.992 0 0 1-.547-.885.747.747 0 0 1 0-.11l-6.98-2.322a1.38 1.38 0 0 1-.949.785l.483 3.608a.994.994 0 0 1 .995.995.99.99 0 0 1-.238.639l3.978 4.364a.766.766 0 0 1 .417-.125Zm41.934-2.999c0-.972-.511-1.703-1.079-2.442a55.109 55.109 0 0 1-4.602-7.085 7.069 7.069 0 0 1-.44-.907c-.496-1.307-.279-2.212.614-2.621 1.35-.621 2.812-.22 3.362 1.023.22.492.337 1.03.455 1.566v.001c.044.202.089.402.138.6a12.318 12.318 0 0 0 2.598 5.115c.432.51.68.628 1.058-.095a22.993 22.993 0 0 0 2.421-7.093c.159-1.022.225-2.186-1.303-2.413-.487-.072-.462-.436-.438-.769a4.53 4.53 0 0 0 .008-.131.846.846 0 0 1 .767-.86c1.248-.255 2.25.53 2.27 1.862.017 1.026-.272 1.993-.56 2.958-.07.237-.14.473-.207.711-.923 3.395-1.871 6.788-3.975 9.716-.044.06-.085.124-.126.188-.207.32-.423.655-.961.676Zm-28.194.08c-4.927.122-6.993-3.984-6.407-7.876.394-2.577 1.416-4.748 4.19-5.625 1.79-.57 3.506-.322 5.13.512 1.022.527 1.107 1.296.178 1.938-.494.34-.657.816-.819 1.288-.09.26-.179.52-.323.757-.31.512-.767 1.097-1.166.271-.376-.782-.824-1.33-1.644-1.316a3.44 3.44 0 0 0-2.606 1.124c-1.224 1.379-1.334 3.424-.312 5.18.92 1.586 2.946 2.557 4.633 2.215.454-.114.859-.37 1.156-.732.348-.373.767-.767 1.278-.23.512.537.368 1.1-.102 1.55-.882.849-2.015.982-3.186.943Zm19.93-9.082h-.89c-3.231 0-5.363 1.807-5.709 4.873-.317 2.794 1.593 4.658 4.388 4.126.889-.172.816.238.742.658a5.646 5.646 0 0 0-.021.125c-.248 1.593-1.72 2.053-3.485 1.127-.085-.044-.168-.102-.252-.16-.293-.203-.593-.412-.99-.07-.456.389-.39.93-.302 1.412.135.741.636 1.258 1.299 1.618 2.13 1.163 4.517-.054 5.029-2.651.36-1.82.317-3.654.274-5.488-.022-.984-.045-1.968-.006-2.95.006-.139.005-.278.003-.418-.006-.517-.013-1.035.368-1.512.358-.45.046-.69-.447-.69Zm-1.452 1.812v2.023c0 .147 0 .295.002.444.001.352.003.707-.004 1.064-.029 1.102-.624 1.473-1.647 1.048a2.362 2.362 0 0 1-1.388-2.554c.21-1.232 1.503-2.518 2.526-2.556.406-.016.511.184.511.531Zm35.252 2.199c.382-.773.75-1.521 1.34-2.222.173 1.101.767 1.886 1.353 2.662.127.168.254.336.376.506.197.276.499.601.696 0 .058-.178.12-.357.181-.535.36-1.039.72-2.08.36-3.228-.17-.543-.406-.998-.96-1.253-.394-.184-.824-.46-.512-.957.256-.414.68-.51 1.22-.309a2.046 2.046 0 0 1 1.365 2.21c-.455 2.796-1.25 5.522-3.094 7.994-.16-1.365-.935-2.18-1.73-3.018l-.001-.001c-.09-.094-.18-.189-.268-.284-.36.443-.616.935-.873 1.427-.322.618-.645 1.237-1.173 1.764-.164-.938-.718-1.59-1.266-2.236a9.498 9.498 0 0 1-.718-.917 23.08 23.08 0 0 0-.437-.636c-.553-.788-1.102-1.569-1.283-2.552-.164-.89.025-1.631 1.022-1.846.962-.207 1.621.138 1.897 1.158.346 1.238.97 2.375 1.788 3.63.273-.457.497-.911.717-1.357Zm-8.457 2.905a3.27 3.27 0 0 1-2.275.72 8.508 8.508 0 0 1-1.066-.23c-.41-.112-.867-.33-.92-.767-.04-.325.252-.438.531-.546a2.14 2.14 0 0 0 .271-.118c.869-.49 1.742-.97 2.616-1.451l.002-.002c.568-.313 1.136-.625 1.703-.94.057-.032.12-.06.183-.087.239-.104.482-.21.433-.578-.207-1.573-2.815-3.242-4.423-2.828-3.089.798-4.216 5.177-1.946 7.568 1.31 1.38 4.367 1.557 5.574.292.304-.315.693-.737.304-1.2-.304-.364-.619-.119-.897.098l-.055.043-.035.026Zm-1.385-3.631c.12.134.23.276.332.424a5.111 5.111 0 0 1-.545.404c-.813.447-1.63.883-2.45 1.31-.283.153-.718.37-.766-.162a2.237 2.237 0 0 1 1.127-2.232c.788-.475 1.601-.43 2.302.256Zm-31.538 1.255c0 2.422-1.644 4.311-3.877 4.26-2.5-.059-3.978-1.823-4.011-4.144-.038-2.516 1.739-4.503 3.968-4.488 2.23.016 3.922 1.877 3.92 4.372Zm-3.971 1.511c1.393 0 2.649-1.168 2.661-2.503.013-1.334-1.265-2.556-2.63-2.556-1.366 0-2.401 1.068-2.427 2.533-.025 1.465.985 2.516 2.396 2.526Zm27.95-2.273c-.022-.939-.043-1.861.198-2.715.097-.838-.266-1.102-.957-1.058-.623.04-.8.368-.67.93.261 1.13.221 2.28.181 3.419l-.007.202-.021.52c-.047 1.036-.093 2.08.26 3.093.152.432.393.797.92.554.434-.2.82-.488.485-1.073-.449-.787-.418-1.656-.388-2.512l.002-.063c.016-.432.006-.866-.004-1.296Zm.239-7.064c-.039.511-.272.93-.793.938-.598 0-.875-.467-.849-1.007a.864.864 0 0 1 .885-.87c.5.019.815.374.757.94Z" fill="#fff"/></svg>