<svg width="115" height="40" fill="none" xmlns="http://www.w3.org/2000/svg"><path fill-rule="evenodd" clip-rule="evenodd" d="M24.568 17.54c.067.193.067.387.067.589l.067-.015v.56a6.938 6.938 0 0 1-.336 2.165c-.053.083-.11.163-.171.24a.21.21 0 0 0 0-.068c.038-.22.066-.442.082-.664v-.754a9.4 9.4 0 0 0-.419-2.77 9.18 9.18 0 0 0-.746-1.793 10.596 10.596 0 0 0-9.356-5.406c-5.81 0-10.521 4.473-10.521 9.961s4.712 9.968 10.52 9.968h.374l.747-.044.336-.038a2.434 2.434 0 0 0 2.06-1.919l.075.112.098.157c.059.122.107.25.141.38v.075c.011.11.011.22 0 .329a.216.216 0 0 1 0 .067v.172a3.88 3.88 0 0 0 1.016-.418 4.83 4.83 0 0 0 .403-.276h.045c.09-.068.194-.15.313-.254l.113-.12c.122-.12.236-.247.343-.38.09-.13.17-.268.239-.411.06-.06.06-.112.06-.165a1.95 1.95 0 0 0 .06-.746.478.478 0 0 0-.471-.44h-1.949a.748.748 0 0 1 .105-.225c.313-.508 1.277-.873 2.419-.873.7-.02 1.394.147 2.009.485.069.04.134.088.194.142l.067.06h.194c.41-.023.822-.023 1.232 0l-.002.01a7.06 7.06 0 0 1-.155.669 7.034 7.034 0 0 1-1.994 3.129 8.098 8.098 0 0 1-.836.68 12.978 12.978 0 0 1-4.413 1.948 13.537 13.537 0 0 1-7.108-.291C5.22 29.867.883 25.417 1.002 19.794c.12-5.257 4.077-8.482 4.929-9.14a13.44 13.44 0 0 1 10.274-2.463 10.946 10.946 0 0 1 5.742 3.307 10.087 10.087 0 0 1 2.434 4.622c.1.468.162.942.187 1.42Zm2.837-.396a1.21 1.21 0 0 1-.142.642c-.724 1.381-.866 1.583-.829 1.508-.828 1.284-1.082 1.546-1.172 1.493-.051-.03-.007-.171.093-.486.074-.233.178-.56.295-1.007.194-.764.444-1.513.747-2.24a.844.844 0 0 1 .359-.403.508.508 0 0 1 .44 0c.21.104.21.366.21.492Zm2.376.364c.235-.016.47.042.671.166a.667.667 0 0 1 .38.395c.113.486-.776 1.113-1.433 1.39l-.268.096a2.18 2.18 0 0 1-.359.105c-.153.037-.28.053-.374.064-.112.014-.178.023-.186.055-.006.023.033.04.093.068.094.043.242.11.348.26a.5.5 0 0 1 .104.314c-.007.105-.097.262-.642.493-.307.13-.628.228-.956.291a6.281 6.281 0 0 1-1.717.187 5.77 5.77 0 0 1 .65-.269 4.48 4.48 0 0 0 .955-.537c.095-.067.17-.129.227-.175.064-.053.104-.087.124-.087.119-.097.224-.21.314-.336a.45.45 0 0 0 .074-.157.447.447 0 0 0-.01-.093c-.007-.041-.013-.072.01-.123.038-.082.135-.134.18-.134.352-.14.69-.316 1.008-.523.216-.142.373-.261.433-.463s-.075-.538-.12-.553a.35.35 0 0 0-.045-.01c-.048-.008-.104-.018-.104-.057a.112.112 0 0 1 0-.112c.182-.15.407-.239.643-.255Zm-.883 4.049a2.545 2.545 0 0 0-.746 0 6.562 6.562 0 0 0-.896.15c-.747.17-1.165.283-1.165.417 0 .128.583.223 1.755.412l.179.029c.866.142 1.247.179 1.493-.06a.582.582 0 0 0 .15-.575c-.112-.261-.493-.328-.77-.373Zm.12.635c-.067.141-.38.134-.993.082l-.142-.014c-.78-.073-1.172-.11-1.172-.173 0-.052.167-.078.506-.128l.33-.051s.239-.038.553-.06a2.99 2.99 0 0 1 .448 0c.35 0 .418.12.433.15a.195.195 0 0 1 .037.194Zm-4.884-.397-.41-.171-.291-.12h-.06a.179.179 0 0 0-.21.045.119.119 0 0 0-.044.06l-.105.239-.06.142a.889.889 0 0 1-.746.448.896.896 0 0 1-.881-.747v-.224l-.045-.321v-.082l-.47-3.047-.053-.32v-.18l-.127-.851a5.279 5.279 0 0 0-5.368-3.734 2.837 2.837 0 0 0-1.673-.94 2.987 2.987 0 0 0-.68-.045 1.423 1.423 0 0 0-.358 0l-1.09.074a1.426 1.426 0 0 0-1.267.973c-.06.18-.084.37-.07.558l.157 2.136v.082c.047.347.117.692.21 1.03a5.9 5.9 0 0 0 .223.889v.172c.197.758.545 1.47 1.023 2.09.101.137.225.256.366.351l.097.06a.748.748 0 0 0 .351.112c.11.005.219-.02.314-.075l-.747-1.284a1.253 1.253 0 0 0 .605-.822l2.09 2.166-2.045 1a1.49 1.49 0 0 1-.575-.052 2.658 2.658 0 0 1-1.046-.627l-.074-.075v-.045a1.475 1.475 0 0 1-.134-.171 5.975 5.975 0 0 1-.381-.672l-.06-.112a7.341 7.341 0 0 1-.456-1.03l-.082-.225a7.981 7.981 0 0 1-.306-.985l-.134-.508-.016-.06a9.785 9.785 0 0 1-.186-.791v-.127a3.733 3.733 0 0 0-3.196 3.532.568.568 0 0 0 0 .111v5.317a.85.85 0 0 0 .859.851h2.18a.85.85 0 0 0 .859-.851v-.919a1.389 1.389 0 0 1 1.33-1.38 1.389 1.389 0 0 1 1.492 1.209v1.09a.866.866 0 0 0 .86.859h2.127a.874.874 0 0 0 .881-.859v-3.375a.216.216 0 0 1 0-.067v-.344l.038-.052v-.082h.052l.045-.037h.336a.911.911 0 0 1 .194-.045h.201a1.359 1.359 0 0 1 1.11.57c.109.151.186.323.227.505v.426l.112.492a.3.3 0 0 0-.001.107v.019a.143.143 0 0 0 .001.039v-.015a1.92 1.92 0 0 0 1.844 1.381h.478a2.241 2.241 0 0 0 1.792-1.015c.085-.143.15-.296.195-.456l.126-.299a.186.186 0 0 0-.06-.216l.732-.68Zm-13.85-6.108.141.15v.104l-.142-.254Zm8.937 1.12a.917.917 0 0 0-.746-.432.873.873 0 0 0-.635.268.865.865 0 0 0-.269.568.874.874 0 0 1 .088-1.028.896.896 0 0 1 .532-.301.896.896 0 0 1 1 .545.853.853 0 0 1 .068.343l-.038.038Zm21.289 1.166v-2.24l4.98.022v7.638h-2.135V22.23a4.585 4.585 0 0 1-3.368 1.418 5.503 5.503 0 0 1-2.39-.477 3.861 3.861 0 0 1-1.605-1.382 6.511 6.511 0 0 1-.896-2.076 11.809 11.809 0 0 1-.298-2.718 15.7 15.7 0 0 1 .112-1.986 9.413 9.413 0 0 1 .388-1.687 4.4 4.4 0 0 1 .747-1.39 4.73 4.73 0 0 1 1.142-1.022 5.064 5.064 0 0 1 1.658-.65 9.853 9.853 0 0 1 2.24-.216c.354-.001.709.021 1.06.067.291.036.58.088.866.157.232.062.46.142.68.239.171.071.338.154.5.246.117.066.23.14.336.224l.202.172-.224 2.62h-1.92l-.403-.933a1.106 1.106 0 0 0-1.023-.672 2.926 2.926 0 0 0-.746.075c-.214.065-.41.177-.575.329-.21.206-.361.463-.44.746a5.974 5.974 0 0 0-.262 1.284c-.075.655-.11 1.313-.105 1.972a18.136 18.136 0 0 0 .262 3.591c.179.784.53 1.173 1.053 1.173.223.005.447-.02.664-.075a1.29 1.29 0 0 0 .5-.261 1.18 1.18 0 0 0 .344-.583 3.61 3.61 0 0 0 .112-.986v-1.456H40.51Zm9.647-7.624h-3.696v13.074h7.026v-2.986h-3.33V10.349Zm11.656 6.608 1.292-6.608h4.666l.956 13.074h-3.464l-.575-7.683-.135-2.837-1.702 9.214h-2.912l-2.054-9.214-.067 2.837-.35 7.683h-3.361l1.038-13.074h5.234l1.434 6.608Zm27.381 5.775c-1.07 0-1.983-.075-2.74-.227v-2.163c.454.093.885.168 1.292.227.407.046.843.07 1.309.07.36 0 .697-.024 1.011-.07.326-.047.605-.134.838-.262.233-.128.419-.297.558-.506.14-.221.21-.506.21-.855 0-.652-.262-1.088-.785-1.309-.524-.233-1.25-.349-2.181-.349h-.925v-1.937h.907c.85 0 1.524-.11 2.024-.331.5-.233.75-.657.75-1.274 0-.546-.197-.919-.593-1.117-.395-.197-.93-.296-1.605-.296-.372 0-.774.035-1.204.104-.43.059-.814.14-1.152.245V10.64c.28-.093.67-.174 1.17-.244.5-.081 1-.122 1.5-.122a8.83 8.83 0 0 1 1.832.174c.547.105 1.012.291 1.396.559.384.256.675.599.872 1.03.21.418.314.936.314 1.552 0 .64-.157 1.18-.47 1.623-.303.43-.792.756-1.466.977v.105c.744.15 1.302.482 1.675.994.384.5.575 1.123.575 1.867 0 1.233-.43 2.14-1.29 2.722-.85.57-2.124.855-3.822.855ZM77.698 13.31l2.967-.576v9.824h2.564v-12.11h-1.901l-3.63.733v2.129Zm-1.804 2.879h-5.357v2.024h5.357v-2.024Zm21.952 6.281a5.95 5.95 0 0 0 1.814.262 5.79 5.79 0 0 0 1.798-.262 3.062 3.062 0 0 0 1.395-.977c.384-.477.675-1.116.873-1.92.209-.813.314-1.843.314-3.087 0-1.245-.105-2.269-.314-3.071-.198-.803-.489-1.437-.873-1.902a2.94 2.94 0 0 0-1.395-.96 5.455 5.455 0 0 0-1.798-.28c-.663 0-1.267.094-1.814.28a2.943 2.943 0 0 0-1.396.96c-.384.465-.68 1.099-.89 1.902-.21.802-.314 1.826-.314 3.07 0 1.245.105 2.275.314 3.089.21.802.506 1.442.89 1.92.384.465.849.79 1.396.976Zm2.669-2.093c-.232.116-.517.174-.855.174-.337 0-.628-.058-.872-.174-.233-.117-.425-.32-.576-.611-.151-.303-.262-.715-.331-1.239-.07-.523-.105-1.198-.105-2.024 0-.814.035-1.483.105-2.007.07-.523.18-.936.331-1.238.151-.314.343-.53.576-.646.244-.116.535-.175.872-.175.338 0 .623.059.855.175.245.116.442.332.594.646.151.302.261.715.331 1.239.07.523.105 1.192.105 2.006 0 .826-.035 1.5-.105 2.024-.07.523-.18.936-.331 1.239-.152.29-.349.494-.594.61Zm4.587-9.929h4.082c.884 0 1.617.07 2.199.21.582.128 1.041.331 1.378.61.349.268.594.605.733 1.012.14.408.21.885.21 1.431 0 .628-.128 1.152-.384 1.57-.256.42-.716.722-1.379.908v.07c1.419.36 2.129 1.297 2.129 2.809a4.93 4.93 0 0 1-.209 1.483 2.43 2.43 0 0 1-.733 1.1c-.338.29-.797.517-1.379.68-.581.151-1.314.227-2.198.227h-4.449v-12.11Zm3.542 4.99a9.8 9.8 0 0 0 1.099-.052c.314-.046.57-.122.768-.226a.991.991 0 0 0 .436-.437c.093-.186.139-.43.139-.732 0-.315-.046-.565-.139-.75a.991.991 0 0 0-.436-.437c-.187-.105-.437-.169-.751-.192a10.273 10.273 0 0 0-1.116-.052h-.89v2.879h.89Zm.331 4.99a7.77 7.77 0 0 0 1.152-.069c.314-.046.564-.122.75-.227a.898.898 0 0 0 .384-.47c.081-.199.122-.454.122-.769 0-.279-.041-.517-.122-.715a.897.897 0 0 0-.384-.471c-.175-.128-.419-.215-.733-.262a6.577 6.577 0 0 0-1.169-.087h-1.221v3.07h1.221ZM43.589 27.32c.206-.24.492-.356.858-.356.362 0 .648.117.857.353.2.222.3.518.3.884 0 .365-.1.658-.3.88-.209.233-.495.35-.857.35-.366 0-.652-.12-.858-.353-.199-.226-.295-.518-.295-.877 0-.363.096-.655.295-.881Zm1.426.223c-.133-.16-.322-.236-.568-.236-.246 0-.436.083-.572.249-.13.16-.193.372-.193.645 0 .269.064.481.193.641.133.163.326.246.572.246.246 0 .435-.08.568-.236.13-.156.196-.372.196-.651 0-.28-.066-.499-.196-.659Zm-7.636-.532-.908 2.373h.416l.216-.595h.993l.217.595h.415l-.907-2.373h-.442Zm-.16 1.459.376-1.04h.013l.372 1.04h-.761Zm3.06-.851a.619.619 0 0 0-.283.063.685.685 0 0 0-.226.183v-.2h-.378v1.719h.378V28.35a.474.474 0 0 1 .14-.316.35.35 0 0 1 .246-.1c.26 0 .389.14.389.423v1.027h.379v-1.06c0-.472-.216-.705-.645-.705Zm6.994 0c-.226 0-.399.076-.518.23v-.184h-.353v2.377h.38v-.894c.139.186.312.282.511.282a.7.7 0 0 0 .582-.269.991.991 0 0 0 .196-.628c0-.266-.067-.479-.2-.645a.73.73 0 0 0-.598-.27Zm-.056.306c.166 0 .289.06.369.18.063.099.096.242.096.428s-.037.329-.106.429c-.08.106-.206.163-.373.163a.37.37 0 0 1-.302-.15.668.668 0 0 1-.133-.436v-.026c0-.173.033-.31.106-.412a.383.383 0 0 1 .343-.176Zm1.776-.044c.146-.176.35-.262.605-.262.283 0 .499.093.648.286.136.173.206.415.206.724h-1.286a.62.62 0 0 0 .13.366.4.4 0 0 0 .315.126.46.46 0 0 0 .283-.08.57.57 0 0 0 .153-.209h.379a.78.78 0 0 1-.24.402.852.852 0 0 1-.571.196c-.256 0-.459-.08-.608-.236-.16-.163-.24-.385-.24-.671a.93.93 0 0 1 .226-.642Zm1.064.462c-.034-.279-.183-.415-.449-.415a.394.394 0 0 0-.296.106.558.558 0 0 0-.14.31h.885Zm2.048-.724a.619.619 0 0 0-.282.063.685.685 0 0 0-.226.183v-.2h-.379v1.719h.379V28.35a.475.475 0 0 1 .14-.316c.07-.066.152-.1.245-.1.26 0 .39.14.39.423v1.027h.378v-1.06c0-.472-.216-.705-.645-.705Zm3.115 1.765V27.01h1.086c.236 0 .422.056.556.17a.54.54 0 0 1 .186.428.59.59 0 0 1-.097.339.585.585 0 0 1-.272.196c.156.03.272.093.352.19a.59.59 0 0 1 .116.382c0 .239-.083.415-.246.528-.14.093-.339.14-.591.14h-1.09Zm.99-2.054h-.602v.678h.595c.167 0 .283-.03.353-.083.066-.057.103-.147.103-.27 0-.113-.037-.196-.103-.245-.073-.054-.186-.08-.346-.08Zm.053.997h-.654v.738h.644a.715.715 0 0 0 .346-.07.303.303 0 0 0 .16-.286c0-.136-.04-.233-.117-.292-.08-.06-.206-.09-.379-.09Zm1.94-1.363a.256.256 0 0 0-.184.07.233.233 0 0 0-.073.18c0 .073.024.132.074.182.05.047.11.07.182.07a.256.256 0 0 0 .183-.07.243.243 0 0 0 .077-.183.245.245 0 0 0-.074-.179.264.264 0 0 0-.186-.07Zm-.19.701v1.719h.379v-1.719h-.38Zm1.347 1.719v-2.42h.379v2.42h-.379Zm1.532-2.42a.256.256 0 0 0-.183.07.233.233 0 0 0-.073.18.243.243 0 0 0 .256.252.256.256 0 0 0 .183-.07.243.243 0 0 0 .076-.183.245.245 0 0 0-.073-.179.264.264 0 0 0-.186-.07Zm-.19.701v1.719h.38v-1.719h-.38Zm1.92.017a.618.618 0 0 1 .282-.063c.429 0 .645.233.645.704v1.06h-.38v-1.026c0-.283-.129-.422-.388-.422a.347.347 0 0 0-.246.1.474.474 0 0 0-.14.315v1.034h-.378v-1.719h.378v.2a.684.684 0 0 1 .226-.183Zm2.506-.063a.724.724 0 0 0-.565.24c-.147.159-.216.368-.216.627 0 .26.07.469.216.625a.741.741 0 0 0 .565.233c.212 0 .382-.09.508-.266v.253c0 .305-.143.458-.429.458a.574.574 0 0 1-.289-.056c-.063-.04-.103-.107-.123-.203h-.379c.034.193.113.332.24.425.126.087.309.133.551.133.539 0 .808-.272.808-.814v-1.609h-.379v.21a.595.595 0 0 0-.508-.256Zm.06.306c.142 0 .255.05.335.15a.66.66 0 0 1 .116.411c0 .173-.04.306-.116.406a.424.424 0 0 1-.339.143c-.166 0-.282-.057-.355-.166-.064-.093-.094-.22-.094-.383 0-.18.04-.315.12-.412a.4.4 0 0 1 .332-.15Zm2.308 1.505c-.412 0-.618-.232-.618-.694v-1.07h.379v1.046c0 .14.026.24.086.306.06.063.153.096.286.096a.355.355 0 0 0 .239-.106.618.618 0 0 0 .166-.292v-1.05h.379v1.718h-.379v-.223a.67.67 0 0 1-.538.27Zm2.562-1.811c-.22 0-.392.037-.518.116a.58.58 0 0 0-.28.416l.376.03a.3.3 0 0 1 .143-.2.467.467 0 0 1 .253-.056c.246 0 .369.11.369.335v.067l-.376.01c-.253.006-.449.06-.588.16a.503.503 0 0 0-.226.445c0 .143.053.259.16.352a.62.62 0 0 0 .421.136c.15 0 .28-.026.39-.076a.672.672 0 0 0 .245-.196v.226h.352v-1.097c0-.21-.053-.369-.159-.479-.12-.126-.31-.19-.562-.19Zm.343.98v.087a.42.42 0 0 1-.153.329.558.558 0 0 1-.37.126.328.328 0 0 1-.202-.063.177.177 0 0 1-.076-.15c0-.206.15-.312.452-.319l.349-.01Zm1.277.785v-2.42h.379v2.42h-.38Zm2.88-2.373v2.373h.39v-.91h.588c.578 0 .867-.247.867-.735 0-.486-.289-.728-.86-.728h-.984Zm.39.332h.565c.17 0 .295.03.375.093.08.06.123.16.123.303 0 .142-.04.245-.12.309-.08.06-.205.093-.378.093h-.565v-.798Zm2.76.369a.41.41 0 0 1 .272-.093c.083 0 .156.013.216.043v.379a.817.817 0 0 0-.246-.037.37.37 0 0 0-.27.117.463.463 0 0 0-.136.352v.91h-.375v-1.718h.375v.246a.584.584 0 0 1 .163-.199Zm1.9-.093c-.256 0-.458.086-.605.262a.929.929 0 0 0-.226.642c0 .286.08.508.24.671.15.157.352.236.608.236a.85.85 0 0 0 .572-.196.78.78 0 0 0 .239-.402h-.38a.569.569 0 0 1-.152.21.467.467 0 0 1-.282.08.4.4 0 0 1-.316-.127.62.62 0 0 1-.13-.366h1.286c0-.309-.07-.551-.206-.724-.15-.193-.365-.286-.648-.286Zm.01.309c.266 0 .416.136.449.415h-.884a.557.557 0 0 1 .14-.309.394.394 0 0 1 .295-.106Zm3.255.751h-1.678v-.312h1.678v.312Zm.683-1.668v.332h.778v2.04h.389v-2.04h.777v-.332h-1.944Zm3.198.701a.41.41 0 0 1 .273-.093c.083 0 .156.013.216.043v.379a.817.817 0 0 0-.246-.037.37.37 0 0 0-.27.117.463.463 0 0 0-.136.352v.91h-.375v-1.718h.375v.246a.585.585 0 0 1 .163-.199Zm1.951-.093c-.22 0-.392.037-.518.116a.58.58 0 0 0-.28.416l.376.03a.3.3 0 0 1 .143-.2.466.466 0 0 1 .252-.056c.246 0 .37.11.37.335v.067l-.376.01c-.253.006-.449.06-.588.16a.503.503 0 0 0-.226.445c0 .143.053.259.16.352a.62.62 0 0 0 .421.136c.15 0 .28-.026.389-.076a.671.671 0 0 0 .246-.196v.226h.352v-1.097c0-.21-.053-.369-.16-.479-.119-.126-.308-.19-.561-.19Zm.342.98v.087a.42.42 0 0 1-.153.329.558.558 0 0 1-.368.126.328.328 0 0 1-.203-.063.177.177 0 0 1-.077-.15c0-.206.15-.312.452-.319l.35-.01Zm1.317-1.565c.05-.046.11-.07.183-.07s.136.024.186.07a.245.245 0 0 1 .073.18.243.243 0 0 1-.076.182.256.256 0 0 1-.183.07.256.256 0 0 1-.183-.07.245.245 0 0 1-.073-.183c0-.073.023-.133.073-.179Zm-.006 2.35v-1.719h.379v1.719h-.38Zm2.201-1.765a.618.618 0 0 0-.282.063.684.684 0 0 0-.226.183v-.2h-.38v1.719h.38V28.35a.474.474 0 0 1 .14-.316.346.346 0 0 1 .245-.1c.26 0 .389.14.389.423v1.027h.379v-1.06c0-.472-.216-.705-.645-.705Zm1.636.262c.146-.176.349-.262.604-.262.283 0 .499.093.648.286.137.173.206.415.206.724h-1.286c.014.16.057.283.13.366a.4.4 0 0 0 .316.126.46.46 0 0 0 .282-.08.57.57 0 0 0 .153-.209h.379a.78.78 0 0 1-.24.402.852.852 0 0 1-.571.196c-.256 0-.459-.08-.608-.236-.16-.163-.24-.385-.24-.671a.93.93 0 0 1 .227-.642Zm1.063.462c-.033-.279-.183-.415-.449-.415a.394.394 0 0 0-.295.106.557.557 0 0 0-.14.31h.884Zm2.384-1.379v.937c-.143-.189-.312-.282-.512-.282a.698.698 0 0 0-.581.27c-.133.165-.196.375-.196.627 0 .263.066.479.2.645.142.18.341.27.597.27.226 0 .4-.077.519-.23v.183h.352v-2.42h-.379Zm-.422.96c.12 0 .223.05.303.15a.674.674 0 0 1 .133.436v.026a.743.743 0 0 1-.107.412.394.394 0 0 1-.342.177c-.17 0-.293-.06-.369-.18-.066-.1-.096-.243-.096-.429s.033-.325.103-.422c.08-.113.202-.17.375-.17Zm3.269 1.46V27.01h.455l.808 1.86h.013l.805-1.86h.455v2.373h-.389v-1.636h-.013l-.698 1.636h-.336l-.698-1.636h-.013v1.636h-.389Zm4.232-1.765c-.263 0-.472.083-.628.256-.16.17-.236.385-.236.651 0 .263.076.479.232.645.16.173.369.26.632.26a.82.82 0 0 0 .631-.26.919.919 0 0 0 .233-.645.924.924 0 0 0-.236-.651c-.159-.173-.369-.256-.628-.256Zm0 .309c.156 0 .279.06.366.186a.72.72 0 0 1 .113.412c0 .163-.04.3-.113.409a.425.425 0 0 1-.366.186.42.42 0 0 1-.366-.186.707.707 0 0 1-.109-.409.72.72 0 0 1 .109-.412.413.413 0 0 1 .366-.186Zm2.883-.027v-.937h.379v2.42h-.352V29.2c-.12.153-.292.23-.518.23-.256 0-.456-.09-.599-.27-.133-.166-.199-.382-.199-.645 0-.252.063-.462.196-.628a.7.7 0 0 1 .582-.27c.199 0 .369.094.511.283Zm-.119.173a.375.375 0 0 0-.303-.15c-.172 0-.295.057-.375.17-.07.097-.103.236-.103.422s.03.33.096.429c.077.12.2.18.369.18.146 0 .263-.06.342-.177a.742.742 0 0 0 .107-.412v-.026a.676.676 0 0 0-.133-.436Zm2.092-.455c-.256 0-.459.086-.605.262a.928.928 0 0 0-.226.642c0 .286.08.508.24.671.149.157.352.236.608.236a.85.85 0 0 0 .571-.196.78.78 0 0 0 .24-.402h-.379a.58.58 0 0 1-.153.21.467.467 0 0 1-.283.08.4.4 0 0 1-.315-.127.62.62 0 0 1-.13-.366h1.286c0-.309-.07-.551-.206-.724-.149-.193-.365-.286-.648-.286Zm.01.309c.266 0 .416.136.449.415h-.884a.561.561 0 0 1 .139-.309.395.395 0 0 1 .296-.106Zm1.643 1.456v-2.42h.379v2.42h-.379Z" fill="#F6F8F9"/></svg>